<?xml version="1.0" encoding="UTF-8" standalone="no"?>
<svg
   version="1.1"
   x="0px"
   y="0px"
   viewBox="0 0 83.664413 82.521507"
   enable-background="new 0 0 100 100"
   xml:space="preserve"
   id="svg6"
   sodipodi:docname="logo.svg"
   width="83.664413"
   height="82.521507"
   inkscape:version="1.3.2 (091e20e, 2023-11-25, custom)"
   xmlns:inkscape="http://www.inkscape.org/namespaces/inkscape"
   xmlns:sodipodi="http://sodipodi.sourceforge.net/DTD/sodipodi-0.dtd"
   xmlns="http://www.w3.org/2000/svg"
   xmlns:svg="http://www.w3.org/2000/svg"><defs
     id="defs6" /><sodipodi:namedview
     id="namedview6"
     pagecolor="#505050"
     bordercolor="#eeeeee"
     borderopacity="1"
     inkscape:showpageshadow="0"
     inkscape:pageopacity="0"
     inkscape:pagecheckerboard="0"
     inkscape:deskcolor="#505050"
     inkscape:zoom="5.1618795"
     inkscape:cx="192.17806"
     inkscape:cy="105.29111"
     inkscape:window-width="3840"
     inkscape:window-height="2081"
     inkscape:window-x="-9"
     inkscape:window-y="-9"
     inkscape:window-maximized="1"
     inkscape:current-layer="svg6" /><g
     id="g5"
     transform="translate(-8.209,-9.4979935)"><g
       id="g4"
       style="display:inline"><path
         fill="#000000"
         d="m 44.454,40.741 -2.135,-2.135 c -0.299,-0.299 -0.785,-0.298 -1.084,0 l -1.848,1.848 3.219,3.219 1.848,-1.848 c 0.299,-0.299 0.299,-0.784 0,-1.084 z"
         id="path1" /><path
         fill="#000000"
         d="m 35.868,49.968 c 0.299,0.299 0.783,0.299 1.082,0 l 4.845,-4.844 c 0.22,-0.22 0.278,-0.542 0.175,-0.814 l 0.047,-0.048 -3.219,-3.219 -1.846,-1.847 c -0.301,-0.3 -0.785,-0.3 -1.085,0 l -4.845,4.844 c -0.299,0.299 -0.299,0.784 0.002,1.084 l 0.438,0.444 3.835,3.829 z"
         id="path2" /><path
         fill="#000000"
         d="m 85.241,10.686 -0.207,0.206 -0.748,-0.748 c -0.406,-0.407 -1.066,-0.407 -1.475,0 l -1.107,1.107 -1.17,-1.174 C 80.3,9.843 80.011,9.779 79.683,9.732 l -2.19,-0.234 c -0.303,-10e-4 -0.604,0.114 -0.836,0.345 -0.459,0.459 -0.459,1.205 0.008,1.673 l 2.028,2.028 c -1.136,0.216 -2.244,0.686 -2.782,1.223 l -8.24,8.241 -4.707,4.707 -8.24,8.241 c -0.732,0.732 -1.339,2.526 -1.352,4.005 l -0.002,0.194 -0.711,0.71 -1.227,-1.228 c -0.733,-0.733 -1.922,-0.733 -2.654,0 L 35.161,53.254 33.47,51.563 34.754,50.042 30.821,46.11 22.477,53.152 12.8,62.203 c -0.299,0.299 -0.298,0.783 0.002,1.082 l 4.775,4.775 c 0.299,0.3 0.784,0.301 1.083,0.002 l 3.47,-3.71 0.967,0.966 -10.823,10.823 c -0.785,0.049 -1.553,0.373 -2.152,0.972 l -0.033,0.032 c -1.303,1.304 -1.303,3.416 0,4.721 l 0.785,0.785 -2.359,2.359 c -0.408,0.408 -0.408,1.068 0,1.476 l 4.352,4.353 c 0.408,0.406 1.068,0.406 1.475,0 l 0.064,-0.064 0.918,0.916 c 0.438,0.438 1.146,0.438 1.584,0 l 0.741,-0.741 c 0.437,-0.437 0.595,-1.302 0.349,-1.933 l -0.514,-1.32 0.365,-0.365 1.018,1.018 c 0.244,0.244 0.64,0.244 0.884,0 l 4.686,-4.686 C 24.68,83.42 24.68,83.023 24.436,82.779 l -1.017,-1.017 6.841,-6.841 c 0.508,1.199 2.105,1.959 3.383,0.768 l 2.584,-2.414 c 0.893,0.104 1.758,0.496 2.443,1.182 0.551,0.551 0.913,1.217 1.086,1.92 l 0.019,0.012 3.021,10.196 c 0.112,1.14 1.07,2.208 2.558,1.858 l 5.639,-1.323 c 2.706,-0.636 1.753,-4.696 -0.955,-4.06 l -0.149,0.033 -2.677,-9.035 1.309,-6.504 c 2.501,1.201 5.619,0.723 7.719,-1.375 2.642,-2.643 2.715,-6.9 0.105,-9.51 -0.389,-0.389 -0.814,-0.719 -1.267,-0.988 l 1.15,-1.073 17.339,-17.451 c -0.751,-0.757 -0.887,-1.91 0.103,-3.292 2.034,-2.843 3.723,-3.938 5.13,-4.57 0.801,-0.359 1.947,-0.605 2.467,-1.376 0.447,-0.665 6.003,-10.884 6.003,-10.884 0.031,-0.044 0.063,-0.086 0.098,-0.129 -0.052,-0.123 -0.128,-0.239 -0.228,-0.339 l -0.443,-0.443 1.992,-1.992 c 0.407,-0.407 0.407,-1.067 0,-1.475 l -1.971,-1.971 c -0.41,-0.407 -1.071,-0.407 -1.477,0 z m -72.064,69.64 c -0.39,0.39 -1.021,0.391 -1.412,0 -0.39,-0.39 -0.389,-1.021 0,-1.411 0.391,-0.39 1.022,-0.391 1.412,-0.001 0.39,0.391 0.389,1.023 0,1.412 z m 10.699,-17.84 3.836,-4.102 4.104,-4.863 1.538,1.539 -8.452,8.452 z m 8.971,12.188 c -0.297,0.298 -0.779,0.299 -1.076,0 -0.297,-0.296 -0.297,-0.779 0,-1.076 0.297,-0.297 0.779,-0.297 1.076,0 0.298,0.298 0.297,0.779 0,1.076 z m 22.289,-9.598 c -1.738,1.738 -4.341,2.024 -6.297,0.885 l 0.227,-1.127 c 1.19,0.83 2.6,1.219 4.004,1.168 1.037,-0.039 0.98,-1.596 -0.057,-1.557 -1.305,0.047 -2.602,-0.396 -3.602,-1.33 l 0.531,-2.643 3.932,-3.67 c 0.496,0.236 0.96,0.56 1.367,0.967 1.975,1.975 1.954,5.248 -0.105,7.307 z M 51.479,42.044 15.627,77.897 14.842,77.112 c -0.204,-0.204 -0.427,-0.376 -0.664,-0.516 l 35.78,-35.78 c 0.08,-0.081 0.213,-0.082 0.295,0 z m 3.678,-3.906 22.996,-22.995 c 0.491,-0.492 1.229,0.246 0.736,0.737 L 55.896,38.875 c -0.493,0.492 -1.23,-0.245 -0.739,-0.737 z m 5.692,5.9 c -0.428,-0.45 -0.279,-1.303 0.334,-1.917 0.611,-0.611 1.457,-0.76 1.909,-0.342 z m 3.087,-3.108 c -0.414,-0.453 -0.265,-1.297 0.345,-1.906 0.606,-0.606 1.443,-0.758 1.898,-0.351 z m 3.087,-3.108 c -0.403,-0.456 -0.251,-1.291 0.354,-1.896 0.602,-0.602 1.43,-0.754 1.887,-0.36 z m 3.089,-3.109 c -0.391,-0.457 -0.238,-1.284 0.363,-1.885 0.596,-0.596 1.417,-0.752 1.876,-0.37 z M 73.2,31.605 c -0.381,-0.459 -0.223,-1.278 0.372,-1.874 0.592,-0.592 1.404,-0.75 1.866,-0.378 z m 3.088,-3.107 c -0.368,-0.462 -0.209,-1.273 0.381,-1.863 0.588,-0.587 1.393,-0.747 1.855,-0.388 z M 58.792,41.772 C 57.906,42.657 56.579,41.33 57.464,40.445 L 80.46,17.45 c 0.885,-0.885 2.212,0.442 1.326,1.327 z M 79.377,25.388 c -0.356,-0.463 -0.196,-1.265 0.39,-1.851 0.582,-0.582 1.379,-0.745 1.843,-0.396 z m 3.089,-3.108 c -0.346,-0.465 -0.184,-1.259 0.398,-1.84 0.577,-0.577 1.365,-0.742 1.83,-0.405 z"
         id="path3" /><path
         fill="#000000"
         d="m 88.062,17.536 c 0,0 -5.567,10.237 -6.02,10.906 -1.363,2.027 -3.726,0.538 -7.611,5.968 -1.519,2.123 0.658,2.652 1.343,2.747 1.463,0.202 2.759,0.595 4.657,-1.951 L 91.439,19.988 c 1.632,-2.25 -1.743,-4.702 -3.377,-2.452 z m 2.244,1.762 c -0.299,0.298 -0.78,0.297 -1.078,0 -0.297,-0.297 -0.297,-0.779 0,-1.077 0.297,-0.297 0.779,-0.296 1.076,0 0.298,0.299 0.299,0.78 0.002,1.077 z"
         id="path4" /></g></g></svg>
